<svg xmlns="http://www.w3.org/2000/svg" width="188" height="46" fill="none"><path fill="#81B3D3" d="M188 37v8h-21V0h21v8h-13v11h10v8h-10v10h13ZM155 0h8v45h-8V23l-3 12h-7l-3-12v22h-8V0h8l6 22 7-22Zm-32 8h-5v29h5V8Zm3-8c3 0 5 3 5 5v35c0 3-2 5-5 5h-11c-3 0-5-2-5-5V5c0-2 2-5 5-5h11ZM98 29l8-2v13c0 3-2 5-5 5H90c-3 0-5-2-5-5V5c0-2 2-5 5-5h11c3 0 5 3 5 5v9l-8 2V8h-5v29h5v-8Zm-17 8v8H63V0h8v37h10Zm-21 0v8H39V0h21v8H47v11h10v8H47v10h13ZM28 0h7l-1 45H20l-2-18-2 18H1L0 0h8v37h1l5-37h7l5 37h1l1-37Z"/></svg>